<svg width="284" height="284" viewBox="0 0 284 284" fill="none" xmlns="http://www.w3.org/2000/svg">
<g id="Vector">
<path fill-rule="evenodd" clip-rule="evenodd" d="M199.191 201.462C199.264 201.387 199.509 201.141 200.044 200.607L199.191 201.462Z" fill="white"/>
<path fill-rule="evenodd" clip-rule="evenodd" d="M21.8408 98.5896V69.5662C21.835 63.3711 23.051 57.2356 25.4192 51.511C27.7873 45.7863 31.2611 40.5848 35.6417 36.2042C40.0223 31.8236 45.2238 28.3498 50.9485 25.9817C56.6731 23.6135 62.8086 22.3975 69.0037 22.4033H98.0271C100.914 22.4033 103.682 21.2566 105.723 19.2155C107.764 17.1744 108.911 14.4061 108.911 11.5195C108.911 8.63295 107.764 5.86462 105.723 3.82352C103.682 1.78242 100.914 0.635742 98.0271 0.635742H69.0037C50.7222 0.635742 33.1895 7.89804 20.2625 20.825C7.33554 33.752 0.0732422 51.2847 0.0732422 69.5662V98.5896C0.0732422 101.476 1.21992 104.244 3.26102 106.286C5.30212 108.327 8.07045 109.473 10.957 109.473C13.8436 109.473 16.6119 108.327 18.653 106.286C20.6941 104.244 21.8408 101.476 21.8408 98.5896ZM185.097 22.4033H214.12C220.316 22.3975 226.451 23.6135 232.176 25.9817C237.9 28.3498 243.102 31.8236 247.482 36.2042C251.863 40.5848 255.337 45.7863 257.705 51.511C260.073 57.2356 261.289 63.3711 261.283 69.5662V98.5896C261.283 101.476 262.43 104.244 264.471 106.286C266.512 108.327 269.281 109.473 272.167 109.473C275.054 109.473 277.822 108.327 279.863 106.286C281.904 104.244 283.051 101.476 283.051 98.5896V69.5662C283.051 51.2847 275.789 33.752 262.862 20.825C249.935 7.89804 232.402 0.635742 214.12 0.635742H185.097C182.211 0.635742 179.442 1.78242 177.401 3.82352C175.36 5.86462 174.213 8.63295 174.213 11.5195C174.213 14.4061 175.36 17.1744 177.401 19.2155C179.442 21.2566 182.211 22.4033 185.097 22.4033ZM0.0732422 185.66V214.683C0.0732422 232.964 7.33554 250.497 20.2625 263.424C33.1895 276.351 50.7222 283.613 69.0037 283.613H98.0271C100.914 283.613 103.682 282.467 105.723 280.426C107.764 278.385 108.911 275.616 108.911 272.73C108.911 269.843 107.764 267.075 105.723 265.034C103.682 262.993 100.914 261.846 98.0271 261.846H69.0037C62.8086 261.852 56.6731 260.636 50.9485 258.268C45.2238 255.899 40.0223 252.426 35.6417 248.045C31.2611 243.664 27.7873 238.463 25.4192 232.738C23.051 227.014 21.835 220.878 21.8408 214.683V185.66C21.8408 182.773 20.6941 180.005 18.653 177.964C16.6119 175.923 13.8436 174.776 10.957 174.776C8.07045 174.776 5.30212 175.923 3.26102 177.964C1.21992 180.005 0.0732422 182.773 0.0732422 185.66ZM185.097 283.613H214.12C232.402 283.613 249.935 276.351 262.862 263.424C275.789 250.497 283.051 232.964 283.051 214.683V185.66C283.051 182.773 281.904 180.005 279.863 177.964C277.822 175.923 275.054 174.776 272.167 174.776C269.281 174.776 266.512 175.923 264.471 177.964C262.43 180.005 261.283 182.773 261.283 185.66V214.683C261.289 220.878 260.073 227.014 257.705 232.738C255.337 238.463 251.863 243.664 247.482 248.045C243.102 252.426 237.9 255.899 232.176 258.268C226.451 260.636 220.316 261.852 214.12 261.846H185.097C182.211 261.846 179.442 262.993 177.401 265.034C175.36 267.075 174.213 269.843 174.213 272.73C174.213 275.616 175.36 278.385 177.401 280.426C179.442 282.467 182.211 283.613 185.097 283.613ZM199.191 201.462C199.099 201.556 199.279 201.379 199.496 201.165L199.191 201.462Z" fill="white"/>
</g>
</svg>
